<?xml version="1.0" standalone="no"?>
<!DOCTYPE svg PUBLIC "-//W3C//DTD SVG 20010904//EN"
 "http://www.w3.org/TR/2001/REC-SVG-20010904/DTD/svg10.dtd">
<svg version="1.0" xmlns="http://www.w3.org/2000/svg"
 width="1472.000000pt" height="832.000000pt" viewBox="0 0 1472.000000 832.000000"
 preserveAspectRatio="xMidYMid meet">

<g transform="translate(0.000000,832.000000) scale(0.100000,-0.100000)"
fill="#000000" stroke="none">
<path d="M11700 8311 c0 -16 27 -31 46 -25 15 4 16 4 5 -4 -11 -8 5 -28 74
-93 49 -46 125 -118 169 -161 45 -42 101 -93 126 -115 25 -21 56 -50 70 -65
22 -25 48 -39 37 -20 -3 4 9 8 26 9 32 1 32 1 7 -10 -14 -6 -26 -12 -28 -13
-2 -1 18 -22 44 -46 26 -23 53 -49 60 -56 8 -7 18 -10 24 -7 6 4 24 -5 41 -19
37 -31 29 -34 -12 -5 -43 30 -35 9 11 -28 44 -38 52 -40 44 -15 -5 14 -4 15 5
2 10 -13 12 -13 21 0 6 9 10 10 10 3 0 -7 -8 -16 -17 -22 -21 -11 -15 -20 17
-26 12 -2 25 -7 29 -11 3 -4 -3 -4 -14 0 -14 5 -11 -3 14 -28 19 -19 39 -32
44 -29 6 3 7 2 4 -4 -4 -6 8 -23 26 -38 18 -16 59 -53 92 -84 176 -164 277
-256 284 -261 5 -3 61 -54 126 -115 64 -60 147 -138 183 -173 37 -34 73 -60
80 -57 7 3 10 0 6 -6 -3 -6 11 -26 32 -45 22 -19 51 -46 66 -60 23 -21 31 -23
50 -14 21 10 21 10 6 -3 -22 -18 -23 -31 -2 -23 8 3 13 2 10 -3 -8 -12 31 -44
43 -36 7 4 8 0 4 -11 -5 -14 -3 -16 11 -11 10 4 15 3 11 -4 -8 -12 14 -41 26
-33 5 3 9 -2 9 -10 0 -21 9 -20 27 2 13 16 13 15 4 -4 -9 -18 -3 -28 39 -69
26 -26 53 -44 59 -41 6 4 9 1 5 -7 -3 -8 5 -21 18 -30 13 -8 55 -46 95 -84 39
-38 102 -96 140 -130 37 -34 88 -81 113 -105 25 -23 80 -74 121 -113 41 -38
101 -94 132 -123 34 -32 61 -50 68 -46 8 4 9 3 5 -5 -4 -7 15 -32 50 -64 56
-51 83 -70 70 -48 -5 7 -1 8 10 4 12 -5 14 -8 5 -11 -9 -3 -4 -13 15 -33 15
-15 32 -26 37 -22 6 3 7 1 4 -4 -4 -6 3 -19 14 -29 16 -14 22 -16 28 -5 6 8
11 9 15 3 3 -6 1 -12 -6 -14 -8 -3 -4 -12 10 -26 l21 -21 1 884 0 885 -67 64
c-38 35 -90 83 -117 107 -27 24 -68 62 -90 84 -23 22 -68 64 -101 94 -33 30
-91 84 -128 120 -56 54 -69 63 -78 51 -8 -12 -9 -11 -7 5 2 13 -2 19 -12 17
-8 -2 -12 0 -8 4 10 9 -12 35 -23 28 -5 -3 -8 -1 -7 4 2 5 -13 23 -32 41 -19
18 -67 62 -105 99 -125 119 -134 125 -153 111 -14 -11 -15 -11 -4 1 18 21 15
33 -9 27 -15 -4 -18 -2 -10 7 8 10 0 21 -32 47 -23 19 -46 33 -50 31 -5 -1 -6
2 -3 6 3 5 -17 28 -44 51 l-49 41 -945 0 c-536 0 -946 -4 -946 -9z m1913 -46
c-3 -9 -8 -14 -10 -11 -3 3 -2 9 2 15 9 16 15 13 8 -4z m-1697 -127 c0 -10 -1
-18 -2 -18 0 0 -8 8 -17 18 -15 16 -15 18 1 18 10 0 18 -8 18 -18z m1949 -88
l20 -25 -22 19 c-13 11 -23 24 -23 29 0 6 1 8 3 6 1 -2 11 -15 22 -29z m-1782
-67 c-3 -7 -6 -13 -8 -13 -2 0 -5 6 -8 13 -3 8 1 14 8 14 7 0 11 -6 8 -14z
m1871 -27 c-3 -9 3 -17 16 -21 12 -4 19 -9 17 -11 -2 -3 -16 1 -31 7 -20 9
-23 15 -15 26 15 17 20 17 13 -1z m-1644 -136 c0 -5 -4 -10 -10 -10 -5 0 -10
5 -10 10 0 6 5 10 10 10 6 0 10 -4 10 -10z m-4 -57 c-3 -4 -13 2 -21 13 -22
29 -18 41 6 15 12 -12 18 -25 15 -28z m1809 27 c3 -6 -1 -7 -9 -4 -18 7 -21
14 -7 14 6 0 13 -4 16 -10z m-1770 -40 c-3 -5 -12 -10 -18 -10 -7 0 -6 4 3 10
19 12 23 12 15 0z m1960 -110 c3 -5 1 -10 -4 -10 -6 0 -11 5 -11 10 0 6 2 10
4 10 3 0 8 -4 11 -10z m29 -35 c-4 -8 -11 -12 -16 -9 -6 4 -5 10 3 15 19 12
19 11 13 -6z m69 -70 c-3 -9 -8 -14 -10 -11 -3 3 -2 9 2 15 9 16 15 13 8 -4z
m-1765 -40 c-3 -3 -9 2 -12 12 -6 14 -5 15 5 6 7 -7 10 -15 7 -18z m80 -120
c-3 -3 -9 2 -12 12 -6 14 -5 15 5 6 7 -7 10 -15 7 -18z m67 -36 c11 -17 -1
-21 -15 -4 -8 9 -8 15 -2 15 6 0 14 -5 17 -11z m165 -153 c-7 -7 -13 -7 -20 0
-6 6 -3 10 10 10 13 0 16 -4 10 -10z m60 -26 c0 -5 -4 -10 -10 -10 -5 0 -10 5
-10 10 0 6 5 10 10 10 6 0 10 -4 10 -10z m130 -125 c0 -2 -9 -3 -19 -2 -11 0
-18 5 -15 9 4 6 34 0 34 -7z m50 -80 c14 -19 14 -19 -2 -6 -10 7 -18 18 -18
24 0 6 1 8 3 6 1 -2 9 -13 17 -24z m85 -85 c3 -6 -1 -7 -9 -4 -18 7 -21 14 -7
14 6 0 13 -4 16 -10z m190 -168 c-3 -3 -11 0 -18 7 -9 10 -8 11 6 5 10 -3 15
-9 12 -12z m45 -1 c0 -5 -7 -11 -14 -14 -10 -4 -13 -1 -9 9 6 15 23 19 23 5z
m395 -409 c-3 -3 -11 0 -18 7 -9 10 -8 11 6 5 10 -3 15 -9 12 -12z m91 -74 c0
-10 -1 -18 -2 -18 0 0 -8 8 -17 18 -15 16 -15 18 1 18 10 0 18 -8 18 -18z
m314 -298 c0 -6 12 -8 28 -5 27 5 27 5 3 -5 -19 -8 -28 -7 -40 5 -10 10 -11
15 -3 15 7 0 12 -5 12 -10z m70 -61 c7 -13 7 -19 0 -19 -5 0 -10 7 -10 15 0 8
-4 15 -10 15 -5 0 -10 5 -10 11 0 14 18 2 30 -22z m90 -34 c-7 -9 -15 -13 -19
-10 -3 3 1 10 9 15 21 14 24 12 10 -5z m80 -79 c0 -2 -7 -9 -15 -16 -13 -11
-14 -10 -9 4 5 14 24 23 24 12z"/>
<path d="M7629 6488 c-122 -93 -200 -155 -654 -517 -258 -206 -533 -425 -610
-486 -77 -61 -154 -122 -171 -135 -882 -705 -1192 -957 -1206 -978 -23 -35
-23 -67 2 -107 23 -38 69 -60 104 -51 28 7 191 134 1031 805 923 737 1429
1138 1575 1248 133 100 144 113 137 164 -8 59 -42 91 -104 96 -44 4 -52 1
-104 -39z"/>
<path d="M9650 6350 c-190 -32 -365 -62 -390 -67 -38 -7 -45 -12 -48 -33 -2
-21 12 -40 70 -95 40 -39 183 -176 317 -305 161 -155 251 -235 265 -235 25 0
38 38 116 340 29 110 63 234 75 275 38 122 39 136 16 159 -12 12 -33 21 -48
20 -16 -1 -183 -27 -373 -59z"/>
<path d="M8266 6002 c-99 -95 -130 -122 -138 -122 -5 0 -41 27 -81 61 -39 33
-84 69 -98 80 l-26 19 -37 -36 c-20 -19 -36 -38 -36 -43 0 -8 219 -216 251
-239 16 -11 22 -11 37 0 18 13 112 93 156 133 12 11 50 44 84 74 34 29 62 59
62 66 0 17 -69 75 -88 75 -8 0 -46 -31 -86 -68z"/>
<path d="M9329 5872 c-47 -37 -140 -110 -205 -163 -396 -319 -513 -414 -635
-516 -76 -62 -140 -113 -144 -113 -7 0 -125 95 -219 177 -33 29 -64 53 -68 53
-5 0 -8 -63 -8 -139 l0 -139 93 -79 c167 -143 185 -156 209 -150 13 4 93 66
178 139 197 168 261 221 550 453 129 104 269 216 310 250 41 34 101 81 133
104 32 24 56 48 55 52 -4 11 -149 139 -157 139 -3 0 -45 -31 -92 -68z"/>
<path d="M7494 5683 c-164 -141 -224 -198 -224 -215 0 -9 12 -26 28 -38 39
-32 108 -24 200 23 39 20 80 37 91 37 10 0 75 -29 145 -66 l127 -65 32 20 c18
11 43 31 56 45 28 29 34 21 -94 128 -50 41 -124 104 -165 141 -41 37 -82 67
-90 67 -9 0 -56 -35 -106 -77z"/>
<path d="M9534 5569 c-27 -23 -113 -94 -191 -156 -150 -119 -173 -144 -173
-180 0 -13 -8 -24 -20 -28 -11 -3 -20 -15 -20 -25 0 -30 -21 -69 -42 -75 -67
-22 -125 -119 -138 -232 -10 -93 0 -170 34 -255 l26 -65 0 -814 c0 -448 4
-820 8 -827 7 -9 83 -12 347 -10 l339 3 2 30 c1 17 5 404 8 860 3 457 9 873
12 926 5 73 3 114 -11 174 -18 83 -33 125 -45 125 -4 0 -10 9 -13 20 -6 22
-48 43 -58 28 -8 -12 -23 9 -38 51 -6 19 -23 54 -37 78 -19 34 -30 43 -44 38
-22 -7 -76 56 -67 79 3 7 45 49 94 92 133 118 137 127 95 182 l-19 24 -49 -43z
m-85 -414 c53 -27 105 -78 120 -117 6 -16 17 -28 24 -28 43 0 92 -152 83 -255
-17 -174 -184 -345 -338 -345 -135 0 -279 123 -323 274 -24 84 -17 224 14 285
47 90 164 192 244 212 48 12 124 1 176 -26z m-378 -655 c9 13 10 13 5 -2 -6
-21 78 -91 144 -120 77 -33 127 -34 218 -2 45 15 79 31 76 36 -10 15 33 8 47
-8 10 -12 10 -20 1 -35 -17 -27 -15 -31 9 -19 11 7 21 10 22 8 1 -2 8 -14 15
-26 7 -13 11 -27 8 -30 -3 -3 -6 0 -6 6 0 7 -4 12 -9 12 -11 0 -9 -33 3 -42
12 -8 15 -628 4 -628 -4 0 -8 6 -8 13 0 6 -24 28 -53 47 -28 19 -75 52 -103
72 -52 39 -76 49 -55 24 9 -11 8 -14 -6 -12 -22 1 -24 -26 -3 -31 13 -4 13 -3
0 6 -8 5 -12 12 -10 15 9 8 60 -6 54 -15 -3 -5 1 -6 9 -3 11 4 14 -5 12 -39
-1 -34 2 -44 12 -40 7 3 13 0 13 -6 0 -6 8 -11 18 -11 15 1 15 2 -2 15 -11 8
-17 18 -13 22 4 3 15 -1 24 -9 10 -9 28 -14 40 -12 17 3 21 0 16 -13 -4 -10
-2 -14 4 -10 6 4 10 -7 10 -24 0 -17 6 -35 14 -40 10 -6 10 -9 2 -9 -7 0 -13
-5 -13 -11 0 -6 6 -9 13 -6 15 6 22 -39 7 -48 -6 -4 -7 1 -3 12 6 15 5 15 -8
3 -13 -12 -12 -17 15 -40 19 -18 27 -32 23 -43 -4 -10 -10 -17 -14 -17 -4 0
-44 29 -88 64 -44 35 -83 60 -86 55 -3 -5 -12 -7 -20 -4 -8 2 -21 1 -29 -5
-13 -8 -12 -11 5 -24 19 -15 19 -15 -13 -16 -22 0 -35 6 -39 17 -10 26 -36 53
-50 53 -7 0 -13 5 -13 10 0 6 -16 10 -35 10 -34 0 -35 -1 -35 -40 l0 -40 40 0
40 0 0 -40 0 -40 40 0 40 0 0 -40 c0 -40 0 -40 -39 -40 -40 0 -40 0 -43 -42
l-3 -43 -40 1 c-22 1 -34 -1 -28 -3 9 -3 11 -17 7 -45 l-7 -40 104 -98 c57
-54 108 -96 113 -93 5 3 6 1 2 -5 -4 -7 -4 -18 1 -24 16 -26 12 -39 -10 -32
-12 3 -27 11 -33 15 -8 7 -14 1 -18 -16 l-6 -25 -122 0 c-112 0 -120 1 -102
16 10 8 13 13 7 9 -7 -3 -13 -4 -13 0 0 3 10 10 23 15 21 8 21 9 -5 9 -28 1
-28 2 -30 69 -1 37 -1 109 0 160 2 87 1 92 -19 92 -20 0 -21 -3 -14 -80 5 -56
4 -80 -4 -80 -6 0 -11 17 -11 40 0 22 -3 40 -8 40 -4 0 -6 18 -4 40 3 25 0 40
-7 40 -6 0 -12 19 -13 43 -1 23 -5 4 -8 -43 -6 -75 -6 -68 -8 65 -1 83 3 182
9 220 5 39 10 98 10 133 0 55 2 62 19 62 17 0 20 -7 20 -39 l0 -40 104 -3 105
-3 -6 29 -6 30 23 -22 c24 -22 46 -30 36 -13 -4 5 0 11 6 14 7 2 10 8 6 12 -4
4 -14 2 -23 -5 -12 -10 -15 -10 -15 4 0 11 9 16 28 16 23 1 24 2 10 11 -10 5
-18 17 -18 25 0 8 5 12 10 9 6 -4 10 6 10 22 0 22 2 25 10 13 8 -13 10 -13 10
2 0 10 -9 22 -19 28 -11 5 -26 16 -33 22 -22 21 -77 58 -85 58 -17 0 -71 -63
-66 -79 4 -13 3 -14 -5 -2 -9 12 -13 12 -26 2 -8 -7 -20 -10 -26 -6 -13 8 -14
361 -1 369 5 4 30 -9 54 -28 25 -19 48 -32 51 -29 3 4 6 1 6 -6 0 -8 6 -11 16
-7 8 3 13 2 10 -3 -5 -8 82 -71 98 -71 14 0 95 74 90 82 -3 4 1 6 8 3 7 -3 36
15 63 40 28 24 54 45 59 45 5 0 -1 8 -12 19 -21 17 -30 41 -16 41 3 0 15 -10
26 -22 14 -17 18 -18 14 -6 -3 10 0 20 6 24 7 4 6 9 -3 15 -10 6 -11 9 -1 9 6
0 12 5 12 11 0 8 -5 8 -15 -1 -8 -7 -12 -16 -9 -21 6 -11 1 -11 -21 -3 -13 6
-14 9 -3 16 10 8 10 9 -2 5 -8 -2 -16 -9 -16 -15 -1 -7 -2 -19 -3 -27 -2 -24
-63 -20 -79 5 -11 18 -9 22 25 38 21 9 41 22 45 27 4 6 8 7 8 3 0 -4 9 0 20 9
34 29 13 27 -34 -4 -25 -16 -70 -38 -100 -47 l-56 -18 0 -68 c0 -64 -1 -68
-25 -72 -13 -3 -22 -1 -19 3 3 5 2 9 -3 9 -4 0 -7 26 -6 57 2 46 1 53 -7 35
-8 -20 -15 -23 -40 -17 -24 5 -30 3 -30 -10 0 -13 -3 -15 -13 -7 -7 6 -29 9
-50 8 -34 -3 -42 3 -38 27 0 4 -5 6 -11 5 -7 -2 -14 9 -16 24 -2 19 -8 25 -18
21 -10 -4 -14 2 -14 21 0 16 6 26 15 26 8 0 15 4 15 8 0 4 9 8 19 8 13 0 19
-7 19 -21 -2 -48 3 -62 19 -62 10 0 26 10 36 21 10 12 16 15 12 9 -7 -15 41
-63 62 -63 8 0 11 5 8 10 -3 6 -13 10 -21 10 -8 0 -14 5 -14 10 0 12 10 13 30
1 8 -6 18 -7 23 -4 5 3 -22 20 -59 38 -66 32 -141 98 -172 152 -14 27 -16 45
-2 23 9 -13 11 -13 21 0z m-12 -90 c0 -9 -4 -8 -9 5 -5 11 -9 27 -9 35 0 9 4
8 9 -5 5 -11 9 -27 9 -35z m538 28 c-3 -8 -6 -5 -6 6 -1 11 2 17 5 13 3 -3 4
-12 1 -19z m-425 -102 c6 4 8 2 5 -4 -4 -5 -16 -8 -28 -5 -16 4 -17 8 -7 14 7
5 14 4 16 -1 2 -6 9 -7 14 -4z m478 -26 c0 -5 -4 -10 -10 -10 -5 0 -10 5 -10
10 0 6 5 10 10 10 6 0 10 -4 10 -10z m18 -27 c-6 -21 -8 -57 -5 -80 2 -24 1
-43 -4 -43 -10 0 -12 120 -3 144 12 32 22 15 12 -21z m29 -145 c-2 -35 -3 -7
-3 62 0 69 1 97 3 63 2 -35 2 -91 0 -125z m-257 140 c0 -5 -9 -4 -20 2 -11 6
-20 12 -20 14 0 2 9 2 20 -1 11 -3 20 -9 20 -15z m-20 -18 c20 -6 21 -8 5 -8
-11 0 -31 4 -45 8 -20 6 -21 8 -5 8 11 0 31 -4 45 -8z m119 -26 c-12 -14 -51
-26 -43 -13 3 5 12 9 20 9 11 0 13 6 9 21 -6 19 -5 20 8 8 10 -9 12 -18 6 -25z
m-437 -2 c-7 -2 -12 -17 -12 -33 0 -18 -4 -28 -10 -24 -5 3 -10 15 -10 26 0
10 -4 19 -10 19 -5 0 -10 5 -10 11 0 6 9 8 20 4 12 -4 20 -2 20 5 0 6 5 8 12
4 9 -6 9 -9 0 -12z m285 12 c-3 -3 -12 -4 -19 -1 -8 3 -5 6 6 6 11 1 17 -2 13
-5z m-327 -66 c0 -9 5 -18 12 -20 7 -3 9 -11 4 -24 -7 -16 -10 -13 -22 21 -7
22 -12 29 -9 15 2 -14 0 -41 -5 -60 -6 -28 -8 -18 -9 50 0 79 1 83 14 60 8
-14 14 -32 15 -42z m136 23 c1 -12 -1 -19 -5 -15 -3 3 -6 11 -6 17 -1 7 -7 11
-14 9 -7 -1 -9 2 -6 8 11 17 30 6 31 -19z m274 25 c0 -2 -8 -10 -17 -17 -16
-13 -17 -12 -4 4 13 16 21 21 21 13z m-195 -75 c3 -5 2 -12 -3 -15 -5 -3 -9 1
-9 9 0 17 3 19 12 6z m110 -9 c-3 -3 -11 0 -18 7 -9 10 -8 11 6 5 10 -3 15 -9
12 -12z m-304 -226 c15 -16 10 -29 -6 -16 -10 8 -14 28 -13 59 l1 46 4 -40 c3
-22 9 -44 14 -49z m596 -58 c-2 -29 -3 -8 -3 47 0 55 1 79 3 53 2 -26 2 -71 0
-100z m-24 27 c3 -56 1 -91 -3 -80 -8 19 -14 193 -6 184 2 -2 6 -49 9 -104z
m-383 -6 c0 -14 -17 -10 -23 5 -4 10 -1 13 9 9 7 -3 14 -9 14 -14z m-40 -4 c0
-8 5 -15 10 -15 24 0 7 -15 -18 -16 -27 -1 -28 1 -18 22 12 27 26 31 26 9z
m65 -14 c-3 -5 5 -12 17 -14 15 -3 12 -4 -8 -4 -22 1 -30 5 -27 14 3 7 9 13
15 13 5 0 7 -4 3 -9z m-240 -11 c3 -5 1 -10 -4 -10 -6 0 -11 5 -11 10 0 6 2
10 4 10 3 0 8 -4 11 -10z m642 -72 c-2 -13 -4 -3 -4 22 0 25 2 35 4 23 2 -13
2 -33 0 -45z m-385 -30 c-29 -11 -33 -9 -14 10 11 12 19 14 24 8 4 -6 0 -14
-10 -18z m162 -23 c-7 -16 -24 -21 -24 -6 0 8 7 13 27 20 1 1 0 -6 -3 -14z
m203 -7 c-3 -8 -6 -5 -6 6 -1 11 2 17 5 13 3 -3 4 -12 1 -19z m-154 -9 c14
-13 17 -19 7 -17 -16 3 -40 23 -40 32 0 11 11 6 33 -15z m-103 -174 c14 -16
10 -18 -14 -9 -9 3 -16 10 -16 15 0 14 16 11 30 -6z m45 -1 c14 -9 22 -20 19
-25 -3 -5 3 -12 13 -16 35 -12 54 -35 41 -50 -9 -11 -7 -15 10 -20 16 -4 22
-13 22 -34 0 -24 -4 -29 -25 -29 -14 0 -25 5 -25 10 0 6 -18 10 -39 10 -35 0
-40 3 -46 29 -4 20 1 39 16 66 l23 38 -23 18 c-28 23 -19 25 14 3z m232 -191
c-2 -37 -3 -9 -3 62 0 72 1 102 3 68 2 -34 2 -93 0 -130z m-57 156 c0 -5 -4
-9 -10 -9 -5 0 -10 7 -10 16 0 8 5 12 10 9 6 -3 10 -10 10 -16z m29 4 c-11
-12 -11 -17 -2 -20 9 -3 11 -38 7 -134 -3 -77 -1 -135 4 -142 6 -7 12 -46 15
-87 2 -41 2 -58 0 -37 -4 31 -8 37 -29 37 -21 0 -24 -5 -26 -37 l-1 -38 -4 38
c-6 50 -21 47 -25 -5 -2 -29 -7 -42 -16 -40 -10 2 -10 -2 -1 -20 10 -18 13
-19 17 -8 8 25 26 30 44 13 23 -20 24 -40 1 -22 -13 11 -17 11 -20 2 -7 -20
-33 -15 -54 10 -10 12 -18 17 -19 10 0 -7 16 -24 35 -39 38 -28 38 -44 0 -44
-17 0 -28 10 -43 40 -10 22 -21 37 -24 35 -3 -3 -18 13 -33 35 -16 23 -37 45
-46 51 -12 6 -16 15 -12 26 4 11 2 14 -5 9 -6 -4 -20 2 -32 14 -25 25 -25 30
-2 31 21 0 -24 20 -52 23 -11 0 -21 7 -24 14 -2 7 2 10 12 6 9 -3 16 -1 16 5
0 6 -4 11 -9 11 -5 0 -17 7 -26 17 -13 13 -19 13 -25 4 -5 -9 -10 -10 -14 -2
-4 6 -6 11 -4 12 2 0 39 3 83 5 44 3 82 9 83 14 5 13 82 13 82 0 0 -5 18 -10
40 -10 l40 0 0 -40 c0 -29 4 -40 15 -40 12 0 15 17 17 88 2 48 2 111 1 140 -1
28 2 52 6 52 5 0 11 9 14 20 3 11 11 20 17 20 9 0 9 -4 -1 -17z m-374 -258
c30 -4 31 -5 17 -14 -10 -6 8 -27 64 -77 94 -85 180 -194 162 -206 -7 -4 -20
-5 -28 -3 -21 7 -290 267 -290 281 0 18 24 35 40 28 8 -3 24 -7 35 -9z m80
-63 c-3 -3 -11 0 -18 7 -9 10 -8 11 6 5 10 -3 15 -9 12 -12z m-259 -239 c-3
-3 -17 0 -33 5 -25 9 -26 11 -5 11 14 1 22 7 23 19 0 12 3 10 10 -7 5 -13 7
-26 5 -28z m531 25 c-3 -8 -6 -5 -6 6 -1 11 2 17 5 13 3 -3 4 -12 1 -19z m37
-6 c3 -5 -1 -9 -9 -9 -8 0 -12 4 -9 9 3 4 7 8 9 8 2 0 6 -4 9 -8z m-34 -32 c0
-5 -8 -10 -17 -10 -15 0 -16 2 -3 10 19 12 20 12 20 0z m-245 -10 c3 -5 -3
-10 -15 -10 -12 0 -18 5 -15 10 3 6 10 10 15 10 5 0 12 -4 15 -10z m135 6 c0
-3 -4 -8 -10 -11 -5 -3 -10 -1 -10 4 0 6 5 11 10 11 6 0 10 -2 10 -4z"/>
<path d="M9318 5113 c0 -5 -1 -15 -2 -23 -1 -8 -26 -28 -56 -45 -66 -37 -87
-81 -70 -144 13 -49 44 -76 115 -104 74 -28 100 -61 91 -112 -15 -78 -84 -100
-137 -44 -16 17 -29 39 -29 49 0 16 -3 16 -37 4 -42 -14 -43 -23 -8 -74 28
-40 57 -61 100 -70 25 -5 31 -11 33 -39 3 -28 6 -32 25 -27 12 3 25 6 30 6 4
0 7 15 7 33 0 25 6 36 30 49 32 18 69 86 70 125 0 71 -62 142 -146 164 -54 15
-74 36 -74 76 0 41 30 73 69 73 36 0 61 -23 61 -56 0 -28 2 -28 47 -12 27 10
32 16 27 33 -11 37 -33 63 -64 76 -16 8 -30 21 -30 29 0 28 -47 57 -52 33z"/>
<path d="M9351 3684 c0 -11 3 -14 6 -6 3 7 2 16 -1 19 -3 4 -6 -2 -5 -13z"/>
<path d="M9370 3674 c0 -9 33 -33 44 -34 6 0 0 9 -12 20 -22 21 -32 25 -32 14z"/>
<path d="M9103 3600 c0 -41 2 -58 4 -37 2 20 2 54 0 75 -2 20 -4 3 -4 -38z"/>
<path d="M9434 3654 c11 -8 28 -14 38 -14 10 0 18 -7 18 -15 0 -8 5 -15 11
-15 6 0 9 6 6 14 -3 7 0 19 6 26 9 10 9 11 0 6 -6 -3 -31 -2 -55 3 -38 9 -41
8 -24 -5z"/>
<path d="M9292 3653 c-6 -2 -9 -9 -6 -15 4 -6 10 -5 15 3 11 18 21 6 13 -15
-4 -11 -13 -15 -23 -11 -13 5 -13 4 -4 -6 10 -10 17 -9 32 8 14 15 17 23 8 32
-12 12 -15 12 -35 4z"/>
<path d="M9430 3632 c1 -4 17 -19 37 -34 26 -20 40 -25 49 -18 8 8 13 7 16 -2
4 -10 9 -8 22 4 16 17 15 17 -21 14 -27 -2 -41 2 -50 14 -12 17 -53 34 -53 22z"/>
<path d="M9336 3609 c-11 -11 -18 -20 -15 -21 46 -29 51 -29 64 -11 11 15 11
19 -3 27 -9 5 -19 12 -22 16 -3 4 -14 -1 -24 -11z m37 -25 c-7 -19 -10 -18
-16 5 -3 13 -1 18 9 14 7 -2 10 -11 7 -19z"/>
<path d="M9520 3559 c0 -10 31 -20 41 -13 17 10 9 22 -16 20 -14 0 -25 -4 -25
-7z"/>
<path d="M9033 3480 c0 -25 2 -35 4 -22 2 12 2 32 0 45 -2 12 -4 2 -4 -23z"/>
<path d="M9140 3193 c0 -5 7 -18 15 -29 13 -18 14 -18 8 4 -5 22 -23 41 -23
25z"/>
<path d="M9130 3148 c0 -9 5 -20 11 -23 17 -11 18 -2 3 19 -12 17 -14 17 -14
4z"/>
<path d="M9199 3105 c19 -22 28 -41 24 -52 -5 -13 -2 -15 16 -10 15 3 28 -2
42 -16 11 -12 15 -23 9 -25 -5 -2 -10 -8 -10 -14 0 -5 9 -6 20 -3 16 5 20 2
20 -14 0 -14 6 -21 20 -21 11 0 20 2 20 5 0 2 -22 27 -50 56 -30 31 -54 48
-61 43 -8 -4 -9 -3 -5 4 4 6 -9 27 -28 47 -44 45 -57 46 -17 0z"/>
<path d="M9201 3054 c0 -11 3 -14 6 -6 3 7 2 16 -1 19 -3 4 -6 -2 -5 -13z"/>
<path d="M9470 3483 c1 -11 26 -43 34 -43 14 0 5 26 -14 38 -11 7 -20 9 -20 5z"/>
<path d="M9450 3450 c0 -5 5 -10 11 -10 5 0 7 5 4 10 -3 6 -8 10 -11 10 -2 0
-4 -4 -4 -10z"/>
<path d="M9640 3455 c0 -8 5 -15 10 -15 6 0 10 7 10 15 0 8 -4 15 -10 15 -5 0
-10 -7 -10 -15z"/>
<path d="M9330 3260 c0 -5 5 -10 10 -10 6 0 10 5 10 10 0 6 -4 10 -10 10 -5 0
-10 -4 -10 -10z"/>
<path d="M9415 3160 c3 -5 8 -10 11 -10 2 0 4 5 4 10 0 6 -5 10 -11 10 -5 0
-7 -4 -4 -10z"/>
<path d="M9470 3109 c0 -5 5 -7 10 -4 6 3 10 8 10 11 0 2 -4 4 -10 4 -5 0 -10
-5 -10 -11z"/>
<path d="M9502 3098 c-14 -14 -16 -28 -3 -28 9 0 24 30 18 36 -2 2 -9 -2 -15
-8z"/>
<path d="M7943 5272 c-22 -21 -71 -65 -109 -98 -88 -76 -134 -117 -204 -181
-31 -29 -69 -62 -84 -74 -31 -24 -14 -34 -151 87 -97 85 -136 113 -152 107
-22 -8 -13 -113 9 -113 6 0 56 -43 111 -96 56 -53 116 -108 134 -121 l33 -25
49 40 c51 40 103 84 245 207 45 39 100 85 122 102 40 31 42 36 48 103 10 98 1
110 -51 62z"/>
<path d="M7945 4988 c-52 -46 -248 -209 -349 -290 l-59 -48 -36 29 c-42 33
-146 125 -212 187 -26 24 -49 40 -53 37 -3 -4 -6 -74 -6 -157 l1 -151 52 -42
c29 -23 92 -78 139 -122 47 -45 92 -81 98 -81 13 0 97 70 205 169 33 31 98 90
144 131 147 130 141 122 140 209 0 42 -4 98 -7 125 l-7 49 -50 -45z"/>
<path d="M7119 4817 c-30 -29 -145 -133 -254 -232 -110 -99 -289 -263 -398
-365 -110 -102 -205 -188 -211 -192 -7 -4 -67 45 -146 118 -74 69 -145 132
-156 140 -30 20 -62 10 -111 -34 -22 -20 -227 -200 -455 -400 -228 -199 -420
-374 -427 -388 -26 -58 1 -130 58 -153 45 -19 69 -3 318 214 551 482 572 498
591 484 20 -16 84 -74 197 -181 101 -94 113 -101 148 -83 15 8 127 110 250
227 122 117 306 288 407 379 102 91 199 179 217 195 l32 29 3 142 c2 78 1 144
-2 146 -3 3 -30 -18 -61 -46z"/>
<path d="M7993 4614 l-43 -36 0 -516 c0 -284 -3 -527 -6 -539 -7 -24 -28 -27
-81 -11 l-33 9 -2 457 -3 457 -26 3 c-19 2 -33 -4 -48 -24 -21 -26 -21 -34
-21 -455 0 -382 -2 -429 -16 -444 -9 -9 -23 -14 -31 -11 -8 3 -21 6 -28 6 -8
0 -21 7 -29 16 -14 13 -16 61 -16 365 0 192 -4 349 -8 349 -4 0 -27 -19 -50
-43 l-42 -43 0 -616 c0 -504 2 -618 13 -627 20 -16 509 -13 519 3 10 15 10
1736 1 1736 -5 0 -27 -16 -50 -36z m-186 -1046 c-3 -8 -6 -5 -6 6 -1 11 2 17
5 13 3 -3 4 -12 1 -19z m210 -160 c-2 -24 -4 -7 -4 37 0 44 2 63 4 43 2 -21 2
-57 0 -80z m-104 75 c-7 -2 -19 -2 -25 0 -7 3 -2 5 12 5 14 0 19 -2 13 -5z
m87 1 c0 -13 -43 -43 -53 -37 -6 4 -1 14 12 25 23 18 41 23 41 12z m-316 -20
c24 -9 19 -24 -6 -24 -18 0 -20 2 -9 9 11 7 9 10 -10 14 -13 2 -16 5 -7 6 9 0
23 -2 32 -5z m51 -4 c-3 -5 -11 -10 -16 -10 -6 0 -7 5 -4 10 3 6 11 10 16 10
6 0 7 -4 4 -10z m179 1 c3 -5 -4 -11 -17 -15 -34 -9 -39 -7 -25 9 15 16 34 19
42 6z m26 -71 c0 -5 3 -9 8 -8 4 1 17 -4 30 -12 21 -14 22 -22 24 -135 l2
-120 6 125 5 125 10 -80 c11 -92 13 -335 3 -335 -4 0 -8 10 -11 23 -3 20 -4
21 -12 3 -6 -13 -3 -22 8 -31 19 -14 23 -35 6 -35 -5 0 -7 5 -3 11 4 8 -1 9
-15 4 -31 -10 -145 5 -133 17 13 13 46 17 53 6 3 -5 22 -8 42 -6 27 2 34 6 28
16 -4 8 -37 14 -82 17 -41 3 -84 7 -96 11 -26 7 -31 34 -8 34 8 0 15 5 15 10
0 6 5 10 10 10 6 0 10 -6 10 -13 0 -21 74 -16 78 6 3 14 -4 17 -37 17 l-41 0
0 115 0 115 40 0 c39 0 40 1 40 35 0 31 3 35 28 36 l27 2 -27 4 c-20 3 -28 10
-28 24 0 10 5 19 10 19 6 0 10 -4 10 -10z m-197 -437 c-13 -2 -33 -2 -45 0
-13 2 -3 4 22 4 25 0 35 -2 23 -4z m-190 -10 c-7 -2 -19 -2 -25 0 -7 3 -2 5
12 5 14 0 19 -2 13 -5z m287 -13 c0 -12 -226 -12 -255 0 -13 5 31 9 118 9 85
1 137 -3 137 -9z m-263 -16 c-3 -3 -12 -4 -19 -1 -8 3 -5 6 6 6 11 1 17 -2 13
-5z"/>
<path d="M8023 3160 c0 -25 2 -35 4 -22 2 12 2 32 0 45 -2 12 -4 2 -4 -23z"/>
<path d="M8308 4406 c-17 -12 -18 -60 -18 -754 0 -697 1 -741 18 -746 9 -2
121 -3 247 -2 213 2 230 4 233 21 3 15 0 17 -25 10 -29 -8 -425 -25 -432 -19
-2 2 12 4 32 4 21 0 37 5 37 11 0 8 24 9 80 4 54 -5 80 -4 80 4 0 5 -28 12
-62 14 -35 2 -20 3 32 1 76 -2 216 10 175 15 -6 0 -16 15 -23 31 -8 17 -18 28
-22 25 -5 -3 -8 70 -7 165 1 93 -1 170 -5 170 -5 0 -8 35 -8 78 0 56 4 79 13
79 13 0 14 -25 21 -326 4 -153 13 -201 31 -170 5 8 4 10 -3 5 -7 -4 -12 -2
-12 3 0 6 5 11 10 11 6 0 10 60 10 159 0 96 -4 162 -10 166 -5 3 -10 40 -10
81 0 59 3 74 15 74 13 0 15 -39 14 -276 0 -152 3 -279 7 -283 3 -3 5 194 2
439 -2 245 0 420 4 390 4 -30 9 -230 10 -445 l3 -390 -55 -6 -55 -6 50 -1 c28
-1 56 2 63 7 11 7 13 84 12 407 -3 620 -1 1018 6 1012 3 -4 5 -324 5 -712 -1
-464 2 -706 9 -706 12 0 14 1429 2 1448 -5 8 -16 10 -27 6 -13 -5 -16 -4 -11
4 11 18 -413 16 -436 -2z m439 -334 l-1 -307 -6 280 c-4 247 -12 318 -22 220
-3 -26 -4 -24 -9 12 -2 25 0 41 6 40 5 -1 10 7 11 18 2 48 5 56 13 50 6 -3 9
-134 8 -313z m-85 207 c-2 -22 -8 -39 -13 -39 -5 0 -9 -18 -9 -40 0 -29 -4
-40 -15 -40 -12 0 -15 15 -15 79 l0 80 28 -1 c26 -1 27 -3 24 -39z m59 -313
c-6 -44 -11 -108 -11 -143 0 -61 -1 -63 -25 -63 -24 0 -25 3 -25 59 0 32 3 86
6 120 6 56 9 61 30 61 23 0 24 3 26 83 2 73 2 75 5 22 3 -33 -1 -96 -6 -139z
m-414 -128 c-1 -46 -3 -9 -3 82 0 91 2 128 3 83 2 -46 2 -120 0 -165z m0 -340
c-2 -35 -3 -7 -3 62 0 69 1 97 3 63 2 -35 2 -91 0 -125z m331 -299 c3 -147 2
-161 -13 -155 -9 3 -21 6 -26 6 -5 0 -9 16 -9 35 0 19 5 35 10 35 6 0 10 47
10 120 0 89 3 120 13 120 9 0 13 -41 15 -161z m-331 -226 c-2 -16 -4 -5 -4 22
0 28 2 40 4 28 2 -13 2 -35 0 -50z m359 32 c16 -12 17 -14 2 -15 -9 0 -19 6
-21 13 -3 7 -6 5 -6 -5 -1 -16 -12 -18 -81 -18 -73 0 -80 2 -80 20 0 18 7 20
83 20 58 0 89 -5 103 -15z m109 -85 c-3 -5 -11 -10 -16 -10 -6 0 -7 5 -4 10 3
6 11 10 16 10 6 0 7 -4 4 -10z"/>
<path d="M1795 4020 c-10 -11 -15 -20 -11 -20 4 0 19 9 33 20 17 13 20 20 11
20 -8 0 -23 -9 -33 -20z"/>
<path d="M1836 4011 c8 -8 43 -8 38 0 -2 4 -13 7 -24 6 -10 -1 -17 -3 -14 -6z"/>
<path d="M1880 3982 c0 -12 19 -26 26 -19 2 2 -2 10 -11 17 -9 8 -15 8 -15 2z"/>
<path d="M6766 3972 c-15 -17 -16 -66 -16 -529 1 -384 4 -514 13 -527 11 -15
38 -16 257 -14 l245 3 3 530 c2 489 1 531 -15 543 -12 9 -78 12 -243 12 -208
0 -228 -2 -244 -18z m91 -8 c-3 -3 -12 -4 -19 -1 -8 3 -5 6 6 6 11 1 17 -2 13
-5z m146 -1 c-23 -2 -64 -2 -90 0 -26 2 -7 3 42 3 50 0 71 -1 48 -3z m251
-206 c4 -95 3 -224 -2 -287 -8 -102 -9 -83 -11 171 -1 331 10 301 -116 302
l-80 1 78 3 c42 2 77 8 77 13 0 6 11 0 24 -11 23 -20 24 -28 30 -192z m-4 203
c0 -5 -2 -10 -4 -10 -3 0 -8 5 -11 10 -3 6 -1 10 4 10 6 0 11 -4 11 -10z
m-450 -16 c0 -2 -7 -4 -15 -4 -8 0 -15 4 -15 10 0 5 7 7 15 4 8 -4 15 -8 15
-10z m70 2 c0 -2 -9 -6 -20 -9 -11 -3 -20 -1 -20 4 0 5 9 9 20 9 11 0 20 -2
20 -4z m-91 -63 c-1 -53 -6 -49 -11 10 -2 20 0 37 4 37 4 0 8 -21 7 -47z m434
42 c12 -5 14 -78 15 -468 1 -254 -2 -453 -7 -442 -8 19 -8 19 -19 -1 -11 -20
-18 -21 -159 -17 -148 4 -170 9 -158 41 3 8 5 137 5 288 l0 274 35 0 34 0 3
117 3 117 117 0 117 1 7 -84 c6 -82 1 -283 -12 -444 -4 -51 -3 -86 5 -100 6
-12 12 -56 14 -97 2 -41 4 69 5 246 1 176 -1 375 -5 442 l-6 121 -86 4 -86 3
82 2 c45 1 88 0 96 -3z m-367 -30 c1 -8 -1 -17 -5 -19 -4 -3 -8 7 -9 21 -2 27
10 25 14 -2z m131 -27 c-3 -8 -6 -5 -6 6 -1 11 2 17 5 13 3 -3 4 -12 1 -19z
m20 0 c-3 -8 -6 -5 -6 6 -1 11 2 17 5 13 3 -3 4 -12 1 -19z m20 0 c-3 -8 -6
-5 -6 6 -1 11 2 17 5 13 3 -3 4 -12 1 -19z m-240 -650 c-1 -101 -2 -19 -2 182
0 201 1 283 2 183 2 -101 2 -265 0 -365z m470 -140 c-1 -40 -3 -10 -3 67 0 77
1 110 3 73 2 -37 2 -100 0 -140z m-390 60 c-2 -13 -4 -3 -4 22 0 25 2 35 4 23
2 -13 2 -33 0 -45z m20 0 c-2 -13 -4 -3 -4 22 0 25 2 35 4 23 2 -13 2 -33 0
-45z m-34 -117 c-3 -10 3 -28 12 -39 15 -17 31 -20 124 -21 58 -1 126 -4 151
-7 25 -3 59 -1 75 5 29 11 29 10 10 -5 l-20 -17 20 8 c45 16 51 17 37 8 -7 -5
-10 -17 -6 -26 3 -10 1 -17 -6 -17 -6 0 -8 5 -5 10 3 6 -1 10 -9 10 -9 0 -16
-4 -16 -10 0 -6 -62 -10 -165 -10 -140 0 -165 2 -165 15 0 13 -11 17 -50 17
-3 1 -17 -2 -32 -6 -17 -4 -28 -2 -28 4 0 5 8 10 18 10 12 0 13 3 5 8 -7 4
-12 22 -10 39 1 17 5 29 10 26 4 -2 7 1 7 6 0 6 11 11 24 11 19 0 23 -4 19
-19z"/>
<path d="M7040 3040 c0 -6 -34 -11 -77 -12 l-78 -1 85 -8 c168 -16 219 -16
225 -1 3 8 3 18 -1 23 -7 12 -154 12 -154 -1z"/>
<path d="M6978 2943 c12 -2 32 -2 45 0 12 2 2 4 -23 4 -25 0 -35 -2 -22 -4z"/>
<path d="M1720 3955 c-13 -14 -22 -26 -19 -26 2 -1 16 -2 30 -3 22 -2 25 2 25
26 0 34 -6 35 -36 3z m30 -5 c0 -5 -2 -10 -4 -10 -2 0 -12 -3 -22 -7 -16 -6
-17 -5 -4 10 17 19 30 22 30 7z"/>
<path d="M1920 3956 c0 -4 18 -25 40 -47 22 -22 40 -45 40 -52 0 -8 3 -8 9 1
5 9 1 21 -14 35 -51 50 -75 70 -75 63z"/>
<path d="M1865 3930 c3 -5 8 -10 11 -10 2 0 4 5 4 10 0 6 -5 10 -11 10 -5 0
-7 -4 -4 -10z"/>
<path d="M1635 3881 c-28 -26 -72 -67 -98 -89 -27 -23 -43 -42 -38 -42 6 0 11
-5 11 -11 0 -6 -8 -8 -17 -5 -12 3 -33 -8 -58 -31 -22 -20 -32 -33 -22 -30 9
4 17 3 17 -1 0 -13 -55 -62 -69 -62 -8 0 -2 10 13 21 15 12 25 24 21 27 -8 8
-55 -39 -49 -49 16 -27 82 13 86 53 2 12 14 33 28 45 26 24 41 23 20 -2 -7 -9
-8 -15 -2 -15 6 0 13 6 15 13 4 9 8 8 17 -3 10 -13 11 -12 6 3 -11 34 16 70
120 156 7 6 14 16 17 23 2 7 8 9 13 5 5 -4 2 -12 -5 -16 -7 -5 -10 -14 -7 -20
13 -21 23 -11 21 22 -1 17 3 35 9 39 6 4 8 9 5 12 -2 3 -27 -17 -54 -43z"/>
<path d="M1950 3880 c0 -5 5 -10 11 -10 5 0 7 5 4 10 -3 6 -8 10 -11 10 -2 0
-4 -4 -4 -10z"/>
<path d="M1920 3862 c0 -12 19 -26 26 -19 2 2 -2 10 -11 17 -9 8 -15 8 -15 2z"/>
<path d="M2050 3825 c7 -8 17 -15 22 -15 5 0 3 7 -6 15 -8 8 -18 15 -22 15 -3
0 -1 -7 6 -15z"/>
<path d="M1572 3785 c-12 -14 -18 -25 -13 -25 11 0 45 39 39 45 -2 3 -14 -6
-26 -20z"/>
<path d="M2093 3799 c3 -9 0 -23 -6 -30 -7 -8 -3 -6 8 3 16 15 17 20 6 30 -11
11 -13 10 -8 -3z"/>
<path d="M2124 3765 c1 -8 7 -20 14 -27 8 -8 9 -5 5 11 -6 25 -22 38 -19 16z"/>
<path d="M2165 3713 c0 -24 4 -28 27 -28 l28 -1 -27 28 c-15 15 -27 28 -28 28
0 0 -1 -12 0 -27z m25 -13 c0 -5 -4 -10 -10 -10 -5 0 -10 5 -10 10 0 6 5 10
10 10 6 0 10 -4 10 -10z"/>
<path d="M2245 3637 c4 -36 5 -37 16 -37 8 0 7 5 -1 15 -7 9 -10 18 -7 21 3 3
12 -3 19 -15 15 -24 30 -28 22 -7 -3 8 -16 22 -28 30 -22 14 -23 13 -21 -7z"/>
<path d="M1300 3575 c-8 -9 -8 -15 -2 -15 12 0 26 19 19 26 -2 2 -10 -2 -17
-11z"/>
<path d="M1340 3571 c0 -6 5 -13 10 -16 6 -3 10 1 10 9 0 9 -4 16 -10 16 -5 0
-10 -4 -10 -9z"/>
<path d="M2320 3574 c0 -8 43 -43 54 -44 5 0 -1 11 -14 25 -22 24 -40 32 -40
19z"/>
<path d="M2330 3530 c0 -5 5 -10 11 -10 5 0 7 5 4 10 -3 6 -8 10 -11 10 -2 0
-4 -4 -4 -10z"/>
<path d="M1223 3517 c-4 -6 -25 -27 -46 -45 -21 -17 -34 -32 -30 -32 3 0 18
10 31 23 21 18 24 19 19 4 -4 -10 -3 -16 2 -12 5 3 11 -1 14 -7 5 -14 36 18
36 37 0 6 -6 2 -13 -7 -16 -22 -26 -23 -26 -3 0 9 6 18 14 21 17 6 30 34 16
34 -5 0 -13 -6 -17 -13z"/>
<path d="M2400 3491 c0 -5 9 -11 20 -14 11 -3 20 -11 19 -19 0 -10 -2 -10 -6
0 -6 16 -20 15 -26 -1 -3 -9 4 -12 22 -11 14 1 28 2 30 3 3 0 -6 12 -19 26
-24 26 -40 32 -40 16z"/>
<path d="M2470 3443 c0 -5 16 -24 35 -43 19 -19 35 -30 35 -24 0 5 -16 24 -35
43 -19 18 -35 29 -35 24z"/>
<path d="M1046 3357 c-54 -49 -66 -65 -53 -70 12 -4 14 -2 10 10 -5 12 -2 15
10 10 12 -4 14 -2 10 10 -4 10 -2 14 7 11 15 -5 43 19 53 46 4 10 13 16 20 13
8 -3 13 3 13 14 0 11 0 19 -1 19 0 0 -31 -29 -69 -63z"/>
<path d="M2569 3348 c14 -16 20 -28 14 -28 -6 0 -14 -8 -17 -17 -6 -16 -6 -16
12 0 20 18 34 14 25 -9 -4 -10 3 -14 22 -14 15 0 24 -4 20 -10 -3 -5 -2 -17 3
-26 8 -14 10 -13 23 2 13 16 12 17 -5 11 -13 -5 -17 -3 -13 7 3 7 -6 24 -21
36 -15 13 -40 34 -57 49 l-30 26 24 -27z"/>
<path d="M925 3250 c-4 -6 1 -7 12 -3 16 6 16 5 4 -11 -8 -9 -21 -14 -30 -11
-8 3 -12 2 -7 -2 4 -4 17 -8 29 -8 16 -1 22 6 23 22 2 23 -19 32 -31 13z"/>
<path d="M2685 3230 c3 -5 8 -10 11 -10 2 0 4 5 4 10 0 6 -5 10 -11 10 -5 0
-7 -4 -4 -10z"/>
<path d="M832 3170 c-37 -33 -50 -50 -41 -55 8 -5 10 -4 5 4 -6 8 0 10 18 5
16 -4 26 -2 26 5 0 6 -8 8 -17 5 -10 -3 1 13 25 36 60 58 48 58 -16 0z"/>
<path d="M2715 3210 c5 -8 10 -22 10 -31 2 -19 21 -41 51 -57 17 -9 20 -7 21
11 0 12 -1 16 -4 10 -8 -22 -25 -14 -19 10 3 12 3 16 0 10 -8 -18 -27 -16 -21
1 4 11 1 13 -10 9 -12 -5 -15 -2 -10 10 3 9 -1 21 -11 29 -13 11 -14 11 -7 -2z"/>
<path d="M863 3164 c-15 -16 -16 -24 -4 -24 8 0 24 30 19 35 -2 2 -9 -3 -15
-11z"/>
<path d="M2815 3113 c4 -14 2 -23 -4 -23 -6 0 -11 -9 -11 -20 0 -11 -11 -27
-25 -36 -14 -9 -25 -21 -25 -26 0 -5 18 5 40 22 37 30 55 59 28 45 -7 -4 -4 1
7 9 18 16 18 17 1 34 -17 16 -18 16 -11 -5z"/>
<path d="M738 3092 c-1 -4 -45 -45 -96 -89 -93 -82 -103 -94 -83 -101 6 -2 11
3 11 12 0 9 7 16 16 16 8 0 12 -4 9 -10 -3 -5 -1 -10 5 -10 6 0 8 10 4 25 -6
23 8 36 19 18 2 -5 2 -3 1 4 -3 13 76 86 84 78 3 -3 -10 -21 -28 -40 -19 -19
-30 -35 -26 -35 15 0 66 59 69 81 2 12 11 27 20 34 9 7 17 15 17 19 0 9 -18 8
-22 -2z"/>
<path d="M776 3092 c-4 -7 0 -19 8 -28 17 -17 19 -11 7 20 -5 14 -10 16 -15 8z"/>
<path d="M750 3061 c0 -5 7 -12 16 -15 14 -5 15 -4 4 9 -14 17 -20 19 -20 6z"/>
<path d="M2730 3030 c-8 -5 -12 -12 -9 -15 4 -3 12 1 19 10 14 17 11 19 -10 5z"/>
<path d="M2725 2990 c-3 -5 -1 -10 4 -10 6 0 11 5 11 10 0 6 -2 10 -4 10 -3 0
-8 -4 -11 -10z"/>
<path d="M702 2974 c-7 -8 -8 -14 -3 -14 10 0 25 19 20 25 -2 1 -10 -3 -17
-11z"/>
<path d="M2646 2944 c-3 -9 -4 -20 -1 -25 4 -5 -1 -6 -9 -3 -10 4 -20 -3 -27
-20 -7 -14 -16 -26 -21 -26 -4 0 -8 -5 -8 -10 0 -6 8 -5 20 2 11 7 20 18 20
24 0 7 8 14 19 17 12 3 19 13 19 31 0 30 -3 33 -12 10z"/>
<path d="M620 2895 c-7 -9 -8 -15 -2 -15 5 0 12 7 16 15 3 8 4 15 2 15 -2 0
-9 -7 -16 -15z"/>
<path d="M508 2880 c-7 -11 -18 -20 -25 -20 -18 0 -23 -14 -11 -30 8 -12 9
-12 4 2 -3 12 2 18 16 20 11 2 25 13 29 26 10 27 3 29 -13 2z"/>
<path d="M2500 2839 c0 -5 5 -7 10 -4 6 3 10 8 10 11 0 2 -4 4 -10 4 -5 0 -10
-5 -10 -11z"/>
<path d="M2530 2820 c-38 -34 -45 -37 -36 -14 3 9 2 12 -5 9 -5 -4 -8 -12 -6
-18 4 -12 -54 -72 -76 -80 -7 -2 -9 -8 -5 -12 4 -4 40 21 80 56 40 34 77 66
82 71 5 4 7 10 5 13 -3 3 -21 -9 -39 -25z"/>
<path d="M430 2815 c-9 -10 -9 -15 -1 -15 6 0 11 5 11 11 0 8 6 7 18 -2 15
-13 16 -12 3 4 -16 21 -16 21 -31 2z"/>
<path d="M510 2820 c0 -5 5 -10 10 -10 6 0 10 5 10 10 0 6 -4 10 -10 10 -5 0
-10 -4 -10 -10z"/>
<path d="M399 2795 c-2 -5 -33 -35 -69 -67 -128 -111 -129 -112 -119 -131 7
-12 6 -17 -1 -17 -6 0 -8 -4 -5 -10 15 -24 24 -8 28 53 1 9 7 17 13 17 7 0 19
6 26 13 7 6 20 12 28 12 9 0 15 9 15 23 0 28 22 43 55 36 19 -3 21 -2 7 4 -17
7 -17 9 -3 21 13 11 16 11 17 0 0 -8 5 -3 10 10 5 13 8 29 6 35 -2 7 -5 7 -8
1z m-89 -115 c0 -5 -4 -10 -10 -10 -5 0 -10 5 -10 10 0 6 5 10 10 10 6 0 10
-4 10 -10z"/>
<path d="M2430 2770 c-18 -16 -31 -32 -29 -35 3 -2 21 11 39 30 42 43 36 46
-10 5z"/>
<path d="M2324 2709 c-3 -6 -3 -13 0 -16 3 -4 6 -1 6 5 0 15 20 15 40 2 13 -9
13 -11 0 -19 -8 -6 -11 -13 -8 -17 4 -3 15 2 25 12 13 12 14 19 5 22 -7 2 -10
7 -7 11 2 5 -9 8 -25 9 -16 0 -32 -4 -36 -9z"/>
<path d="M2331 2672 c-7 -12 -9 -27 -6 -32 3 -5 -12 -7 -35 -5 -48 4 -60 -10
-31 -39 18 -17 23 -18 30 -7 5 8 7 20 4 28 -3 7 -1 13 5 13 6 0 12 -4 14 -9 2
-5 13 -1 26 9 17 14 20 23 13 41 l-8 23 -12 -22z m-57 -58 c9 -24 7 -27 -9
-10 -17 17 -19 26 -6 26 5 0 12 -7 15 -16z"/>
<path d="M157 2575 c-15 -14 -23 -25 -18 -25 6 0 11 -4 11 -10 0 -5 -6 -7 -14
-4 -8 3 -29 -8 -47 -24 -19 -16 -46 -39 -61 -52 -24 -20 -25 -24 -12 -37 8 -9
18 -12 22 -9 3 4 1 11 -6 15 -9 5 -5 14 13 31 25 23 37 16 13 -8 -9 -9 -10
-15 -2 -20 6 -4 14 -14 18 -22 3 -8 4 -4 1 10 -6 33 4 70 18 64 17 -5 43 13
33 23 -5 4 -11 2 -13 -4 -3 -7 -9 -13 -15 -13 -6 0 -3 9 7 20 18 20 18 20 38
-3 15 -16 19 -18 14 -4 -9 25 2 47 25 47 11 0 16 4 13 11 -4 6 -14 8 -22 5 -8
-3 -11 -1 -8 4 3 6 13 10 21 10 8 0 14 5 14 10 0 16 -13 11 -43 -15z"/>
<path d="M2242 2578 c8 -19 -6 -26 -49 -23 -22 1 -30 -2 -26 -12 6 -15 23 -18
23 -3 0 6 4 10 10 10 5 0 7 -7 4 -15 -4 -8 -15 -15 -26 -15 -13 0 -18 -5 -15
-14 8 -20 -13 -34 -48 -32 -23 2 -31 -2 -31 -14 0 -30 43 -16 93 30 26 25 58
53 71 62 21 14 21 16 5 29 -15 12 -16 12 -11 -3z m-112 -112 c0 -3 -4 -8 -10
-11 -5 -3 -10 -1 -10 4 0 6 5 11 10 11 6 0 10 -2 10 -4z"/>
<path d="M4516 2460 c-77 -30 -115 -74 -130 -149 -17 -90 43 -162 166 -201
114 -36 149 -52 165 -77 52 -79 -100 -107 -243 -43 -26 11 -48 19 -49 18 -10
-13 -36 -112 -32 -122 17 -44 262 -73 356 -41 124 41 174 159 111 262 -24 40
-81 77 -151 98 -154 47 -154 47 -154 85 0 26 6 37 25 48 32 17 131 10 188 -14
23 -9 48 -14 55 -11 17 6 44 114 31 127 -19 19 -131 40 -209 40 -54 -1 -96 -7
-129 -20z"/>
<path d="M5768 2473 l-28 -4 0 -315 0 -314 210 0 211 0 -3 68 -3 67 -122 -4
-123 -4 0 251 c0 219 -2 251 -16 256 -17 6 -81 6 -126 -1z"/>
<path d="M7072 2472 c-11 -7 -13 -56 -10 -233 3 -254 8 -270 88 -343 60 -54
102 -69 195 -70 104 -1 164 17 221 67 84 74 88 90 92 350 2 125 0 227 -5 228
-4 0 -17 3 -28 5 -11 2 -44 2 -72 -2 l-53 -5 0 -182 c0 -217 -4 -246 -40 -288
-24 -30 -33 -33 -94 -37 -65 -4 -67 -4 -100 31 -42 45 -46 69 -46 289 0 97 -4
179 -9 182 -17 11 -126 17 -139 8z"/>
<path d="M7980 2160 l0 -320 80 0 c44 0 81 3 81 8 1 4 5 81 8 171 l6 165 184
-172 c148 -139 188 -172 211 -172 26 0 29 4 35 43 3 23 5 164 3 312 l-3 270
-82 3 -83 3 0 -156 c0 -85 -3 -155 -6 -155 -3 0 -76 62 -161 138 -187 166
-208 182 -244 182 l-29 0 0 -320z"/>
<path d="M8937 2468 c-16 -12 -17 -40 -15 -318 l3 -305 195 0 c190 0 196 1
252 27 126 59 188 153 188 286 0 178 -111 289 -312 312 -121 14 -291 13 -311
-2z m341 -141 c77 -28 118 -99 110 -192 -9 -104 -88 -165 -215 -165 l-70 0 -5
178 c-3 97 -4 180 -1 185 7 11 144 7 181 -6z"/>
<path d="M9802 2473 l-22 -4 2 -312 3 -312 74 -3 c53 -2 77 1 82 10 5 7 9 55
9 106 l0 93 47 -3 c47 -3 48 -4 103 -83 30 -44 62 -91 71 -103 15 -21 23 -23
109 -20 l92 3 -47 63 c-25 35 -60 86 -76 113 l-30 48 37 33 c67 59 93 163 60
242 -19 46 -73 93 -127 111 -46 16 -334 29 -387 18z m331 -144 c30 -16 37 -28
37 -67 0 -22 -8 -41 -25 -57 -22 -23 -32 -25 -110 -25 l-85 0 0 80 0 80 81 0
c44 0 90 -5 102 -11z"/>
<path d="M5060 2155 l0 -315 245 0 246 0 -2 53 c-1 28 -4 58 -7 65 -3 9 -44
12 -158 12 l-154 0 0 65 0 65 120 0 121 0 -3 63 -3 62 -117 3 -118 3 0 54 0
54 153 3 152 3 3 63 3 62 -241 0 -240 0 0 -315z"/>
<path d="M6320 2155 l0 -315 85 0 85 0 0 115 0 115 99 0 c55 0 106 3 115 6 12
5 16 21 16 65 l0 59 -115 0 -115 0 0 70 0 70 145 0 145 0 0 65 0 65 -230 0
-230 0 0 -315z"/>
<path d="M2070 2401 c-8 -6 -17 -8 -21 -5 -4 2 -9 -5 -12 -16 -5 -18 -4 -18
24 2 16 12 29 23 29 25 0 5 -4 3 -20 -6z"/>
<path d="M153 2360 c0 -25 2 -35 4 -22 2 12 2 32 0 45 -2 12 -4 2 -4 -23z"/>
<path d="M2000 2350 c0 -5 5 -10 11 -10 5 0 7 5 4 10 -3 6 -8 10 -11 10 -2 0
-4 -4 -4 -10z"/>
<path d="M1925 2310 c-3 -5 -2 -16 2 -26 4 -12 3 -15 -5 -10 -7 4 -12 2 -12
-3 0 -18 15 -12 43 17 l26 27 -25 1 c-13 1 -26 -2 -29 -6z m25 -10 c0 -5 -4
-10 -10 -10 -5 0 -10 5 -10 10 0 6 5 10 10 10 6 0 10 -4 10 -10z"/>
<path d="M1872 2235 c-7 -8 -9 -15 -4 -15 5 0 15 7 22 15 16 19 -1 19 -18 0z"/>
<path d="M1796 2168 c-55 -52 -42 -56 16 -4 25 24 41 43 35 43 -7 0 -30 -18
-51 -39z"/>
<path d="M1730 2137 c0 -25 -43 -70 -57 -59 -4 4 -5 3 0 -2 4 -5 -3 -20 -15
-33 -40 -43 -7 -24 43 25 47 45 60 74 39 87 -6 3 -10 -4 -10 -18z"/>
<path d="M1606 2034 c-9 -24 -7 -27 9 -10 17 17 19 26 6 26 -5 0 -12 -7 -15
-16z"/>
<path d="M1592 2000 c-40 -9 -51 -18 -33 -29 9 -6 10 -11 2 -15 -6 -4 -11 -2
-11 3 0 24 -21 9 -26 -18 -5 -22 -11 -28 -23 -24 -14 4 -14 3 -1 -7 13 -10 11
-11 -7 -7 -15 3 -20 1 -16 -9 7 -20 16 -18 47 11 15 14 22 25 17 25 -6 0 -11
5 -11 11 0 6 8 8 18 5 10 -3 32 8 56 30 41 36 41 37 -12 24z m-2 -20 c0 -5 -4
-10 -10 -10 -5 0 -10 5 -10 10 0 6 5 10 10 10 6 0 10 -4 10 -10z"/>
<path d="M1444 1853 c3 -6 0 -14 -7 -16 -7 -2 -9 -7 -6 -11 3 -3 15 5 27 18
20 24 20 25 1 23 -11 -1 -17 -7 -15 -14z"/>
<path d="M1360 1834 c0 -3 5 -15 11 -26 9 -16 8 -19 -2 -13 -9 6 -11 3 -6 -8
8 -21 -19 -37 -56 -33 -23 3 -25 1 -16 -17 8 -14 8 -18 0 -13 -12 8 -15 -6 -4
-17 11 -11 32 14 26 31 -4 14 -3 14 5 3 9 -12 12 -12 25 1 8 8 29 27 47 41 26
23 30 30 20 42 -12 14 -50 21 -50 9z m39 -13 c7 -5 9 -11 5 -14 -5 -3 -15 1
-22 9 -14 16 -5 18 17 5z"/>
<path d="M1240 1665 c-8 -9 -8 -15 -2 -15 12 0 26 19 19 26 -2 2 -10 -2 -17
-11z"/>
<path d="M1203 1641 c0 -11 5 -18 9 -15 4 3 5 11 1 19 -7 21 -12 19 -10 -4z"/>
<path d="M1124 1588 c-4 -5 -1 -15 5 -21 8 -8 16 -6 31 8 19 20 19 20 -5 21
-14 1 -28 -3 -31 -8z m26 -8 c0 -5 -4 -10 -10 -10 -5 0 -10 5 -10 10 0 6 5 10
10 10 6 0 10 -4 10 -10z"/>
<path d="M1053 1538 c-2 -5 3 -8 12 -8 9 0 13 -5 9 -11 -3 -6 -15 -8 -26 -6
-11 3 -18 1 -16 -5 2 -6 -10 -24 -27 -41 -23 -24 -38 -31 -67 -31 -29 1 -35
-2 -30 -14 4 -11 1 -14 -11 -9 -11 4 -14 2 -11 -8 3 -7 1 -22 -4 -32 -5 -10
-7 -23 -5 -30 5 -13 46 19 115 90 21 20 40 37 44 37 3 0 24 18 46 40 l40 39
-32 -2 c-18 -1 -34 -5 -37 -9z m-83 -119 c0 -5 -4 -8 -9 -5 -5 4 -20 -7 -33
-22 -35 -42 -57 -53 -34 -17 30 47 76 73 76 44z"/>
<path d="M838 1348 c7 -7 12 -16 12 -20 0 -13 -17 -9 -33 7 -14 13 -15 11 -13
-20 4 -39 11 -52 21 -36 3 6 1 11 -4 11 -6 0 -11 5 -11 11 0 6 8 8 19 4 26 -8
48 20 31 40 -7 8 -17 15 -23 15 -7 0 -7 -4 1 -12z"/>
<path d="M748 1269 c-10 -5 -18 -15 -18 -21 0 -6 11 -3 25 6 36 24 42 19 9 -6
-16 -13 -33 -22 -38 -20 -4 2 -6 -4 -3 -12 6 -15 -18 -30 -33 -21 -4 3 -7 -3
-6 -13 0 -11 -7 -18 -21 -20 -15 -2 -23 -10 -23 -23 0 -19 -4 -21 -52 -22 -22
-1 -25 -4 -17 -19 13 -24 18 -23 61 15 20 17 66 57 101 87 36 30 65 60 63 65
-4 14 -28 16 -48 4z m-138 -163 c0 -3 -4 -8 -10 -11 -5 -3 -10 -1 -10 4 0 6 5
11 10 11 6 0 10 -2 10 -4z"/>
<path d="M12594 1178 c-65 -58 -283 -251 -409 -362 -44 -39 -105 -94 -135
-122 -30 -27 -138 -124 -240 -214 -102 -90 -215 -193 -252 -229 l-67 -64 22
-19 c12 -11 45 -41 72 -67 28 -26 66 -59 86 -74 l36 -27 1134 0 1134 0 -65 62
c-36 33 -211 199 -390 367 -179 168 -363 342 -410 386 -47 44 -125 119 -175
166 -159 151 -169 161 -221 205 -28 24 -53 44 -56 44 -2 0 -31 -24 -64 -52z"/>
<path d="M647 1184 c3 -7 9 -14 14 -14 14 0 10 17 -5 23 -10 4 -13 1 -9 -9z"/>
<path d="M560 1064 c0 -8 5 -12 10 -9 6 4 8 11 5 16 -9 14 -15 11 -15 -7z"/>
<path d="M489 1033 c-5 -29 -5 -53 -1 -48 7 6 12 55 6 55 -2 0 -5 -3 -5 -7z"/>
<path d="M520 1025 c-8 -9 -8 -15 -2 -15 12 0 26 19 19 26 -2 2 -10 -2 -17
-11z"/>
<path d="M404 948 c-4 -5 -1 -15 5 -21 8 -8 17 -6 32 10 l21 21 -26 0 c-15 0
-29 -5 -32 -10z m26 -8 c0 -5 -4 -10 -10 -10 -5 0 -10 5 -10 10 0 6 5 10 10
10 6 0 10 -4 10 -10z"/>
<path d="M370 901 c-6 -12 -7 -21 -1 -21 10 0 24 30 17 37 -2 3 -9 -5 -16 -16z"/>
<path d="M253 830 c-1 -11 0 -20 2 -20 2 0 9 9 15 20 8 15 8 20 -3 20 -7 0
-13 -9 -14 -20z"/>
<path d="M284 814 c-9 -14 -23 -23 -30 -20 -9 3 -11 -1 -7 -12 3 -9 3 -14 -1
-10 -4 3 -20 -6 -35 -20 -16 -15 -43 -40 -61 -55 -18 -15 -30 -30 -26 -34 3
-3 14 2 23 13 10 11 55 52 101 92 45 39 76 72 68 72 -9 0 -23 -11 -32 -26z"/>
<path d="M165 789 c-11 -16 -1 -19 13 -3 7 8 8 14 3 14 -5 0 -13 -5 -16 -11z"/>
<path d="M185 770 c-16 -16 -26 -32 -24 -35 3 -2 21 11 39 30 19 19 29 35 24
35 -6 0 -23 -13 -39 -30z"/>
<path d="M100 716 c0 -2 7 -9 15 -16 12 -10 15 -10 15 4 0 9 -7 16 -15 16 -8
0 -15 -2 -15 -4z"/>
<path d="M90 670 c-13 -25 1 -52 15 -29 5 8 4 10 -3 5 -16 -9 -15 7 0 22 6 6
9 14 6 18 -4 3 -12 -4 -18 -16z"/>
<path d="M32 618 c24 -20 32 -23 22 -7 -3 6 -1 14 5 18 7 4 -2 8 -18 8 l-30 0
21 -19z"/>
<path d="M15 600 c10 -11 20 -20 23 -20 3 0 -3 9 -13 20 -10 11 -20 20 -23 20
-3 0 3 -9 13 -20z"/>
</g>
</svg>
